<svg id="Layer_1" data-name="Layer 1" xmlns="http://www.w3.org/2000/svg" viewBox="0 0 1921.5 1081"><defs><style>.cls-1{fill:#183055;stroke:#183055;}.cls-1,.cls-3,.cls-4{stroke-miterlimit:10;}.cls-2{fill:#1d5abb;}.cls-3,.cls-4{isolation:isolate;fill:none;stroke:#1d5abb;stroke-width:4px;font-family:ArialMT, Arial;}.cls-3{font-size:36px;}.cls-4{font-size:42.78px;}</style></defs><title>bg_poly_new</title><path class="cls-1" d="M1920.5.5V20.08l.5,1060.42L12.63,1080H.5V.5Z"/><path class="cls-2" d="M299.5,269.5a10,10,0,1,1-10,10,10,10,0,0,1,10-10m0-4a14,14,0,1,0,14,14A14,14,0,0,0,299.5,265.5Z"/><path class="cls-2" d="M144.5,807.5a10,10,0,1,1-10,10,10,10,0,0,1,10-10m0-4a14,14,0,1,0,14,14A14,14,0,0,0,144.5,803.5Z"/><path class="cls-2" d="M510.5,446.5a9,9,0,1,1-9,9,9,9,0,0,1,9-9m0-5a14,14,0,1,0,14,14A14,14,0,0,0,510.5,441.5Z"/><path class="cls-2" d="M510.5,312.5a10,10,0,1,1-10,10,10,10,0,0,1,10-10m0-4a14,14,0,1,0,14,14A14,14,0,0,0,510.5,308.5Z"/><path class="cls-2" d="M1025.5,283.5h0a10,10,0,0,1,4.7,18.83,9.75,9.75,0,0,1-4.7,1.17,10,10,0,0,1-4.7-18.83,9.75,9.75,0,0,1,4.7-1.17m0-4a14,14,0,1,0,12.37,7.43A14,14,0,0,0,1025.5,279.5Z"/><path class="cls-2" d="M389.5,741.66h0a10,10,0,1,1-4.68,1.17,10,10,0,0,1,4.68-1.17m0-4a14,14,0,1,0,12.37,7.44A14,14,0,0,0,389.5,737.66Z"/><path class="cls-2" d="M710.65,114.55a10,10,0,1,1-4.67,1.17,9.89,9.89,0,0,1,4.67-1.17m0-4A14,14,0,1,0,723,118,14,14,0,0,0,710.65,110.55Z"/><path class="cls-2" d="M163.5,157.5v22h-22v-22h22m4-4h-30v30h30Z"/><path class="cls-2" d="M123.5,342.5v22h-22v-22h22m4-4h-30v30h30Z"/><path class="cls-2" d="M499.5,656.5v22h-22v-22h22m4-4h-30v30h30Z"/><path class="cls-2" d="M667.5,486.5v22h-22v-22h22m4-4h-30v30h30Z"/><path class="cls-2" d="M1196.5,217.5v22h-22v-22h22m4-4h-30v30h30Z"/><path class="cls-2" d="M1256.5,268.5v22h-22v-22h22m4-4h-30v30h30Z"/><text class="cls-3" transform="translate(216.63 521.09)">+</text><text class="cls-4" transform="matrix(0.84, 0, 0, -1, 285.63, 735.31)">+</text><text class="cls-3" transform="translate(1057.63 368.09)">+</text><text class="cls-3" transform="translate(803.63 512.09)">+</text><text class="cls-3" transform="translate(681.63 88.09)">+</text><text class="cls-3" transform="translate(777.63 353.09)">+</text><path class="cls-2" d="M1640.3,746.5a10,10,0,1,1,9.93-10.06,10,10,0,0,1-9.93,10.06m0,4a14,14,0,1,0-14.1-13.9A14,14,0,0,0,1640.33,750.5Z"/><path class="cls-2" d="M1791.77,207.5a10,10,0,1,1,9.94-10.07,10,10,0,0,1-9.94,10.07m0,4a14,14,0,1,0-14.09-13.91A14,14,0,0,0,1791.8,211.5Z"/><path class="cls-2" d="M1428.14,570.89a9,9,0,1,1,8.95-9.06,9,9,0,0,1-8.95,9.06m0,5A14,14,0,1,0,1414.09,562,14,14,0,0,0,1428.18,575.89Z"/><path class="cls-2" d="M1429,704.89a10,10,0,1,1,9.94-10.07,10,10,0,0,1-9.94,10.07m0,4A14,14,0,1,0,1415,695,14,14,0,0,0,1429.05,708.89Z"/><path class="cls-2" d="M914.22,737.26h0a10,10,0,0,1-4.82-18.8,9.85,9.85,0,0,1,4.69-1.2,10,10,0,0,1,4.83,18.8,9.89,9.89,0,0,1-4.7,1.2m0,4a14,14,0,1,0-12.42-7.35A14,14,0,0,0,914.25,741.26Z"/><path class="cls-2" d="M1547.21,274.94h0a10,10,0,1,1,4.67-1.2,9.89,9.89,0,0,1-4.67,1.2m0,4a14,14,0,1,0-12.42-7.36A14,14,0,0,0,1547.24,278.94Z"/><path class="cls-2" d="M1230.17,904.14a10,10,0,0,1-4.83-18.8,9.89,9.89,0,0,1,4.67-1.2,10,10,0,0,1,4.83,18.8,9.78,9.78,0,0,1-4.67,1.2m0,4a14,14,0,1,0-12.43-7.36A14,14,0,0,0,1230.2,908.14Z"/><path class="cls-2" d="M1777,857.61l-.14-22,22-.14.14,22-22,.14m-4,4,30-.2-.2-30-30,.2Z"/><path class="cls-2" d="M1815.82,672.35l-.15-22,22-.14.15,22-22,.14m-4,4,30-.2-.19-30-30,.2Z"/><path class="cls-2" d="M1437.77,360.82l-.14-22,22-.14.15,22-22,.14m-4,4,30-.2-.19-30-30,.2Z"/><path class="cls-2" d="M1270.89,531.92l-.15-22,22-.15.15,22-22,.15m-4,4,30-.19-.19-30-30,.2Z"/><path class="cls-2" d="M743.66,804.38l-.14-22,22-.15.15,22-22,.15m-4,4,30-.19-.2-30-30,.19Z"/><path class="cls-2" d="M683.33,753.77l-.15-22,22-.14.15,22-22,.14m-4,4,30-.2-.19-30-30,.2Z"/><text class="cls-3" transform="translate(1721.52 494.38) rotate(179.62)">+</text><text class="cls-4" transform="matrix(-0.84, 0.01, 0.01, 1, 1651.12, 280.61)">+</text><text class="cls-3" transform="translate(881.54 652.88) rotate(179.62)">+</text><text class="cls-3" transform="translate(1134.59 507.22) rotate(179.62)">+</text><text class="cls-3" transform="translate(1259.37 930.41) rotate(179.62)">+</text><text class="cls-3" transform="translate(1161.63 666.05) rotate(179.62)">+</text></svg>