<svg id="Layer_1" data-name="Layer 1" xmlns="http://www.w3.org/2000/svg" viewBox="0 0 1921 1080.5"><defs><style>.cls-1{fill:#183055;stroke:#183055;}.cls-1,.cls-3,.cls-4{stroke-miterlimit:10;}.cls-2{fill:#1d5abb;}.cls-3{font-size:36px;}.cls-3,.cls-4{fill:none;stroke:#1d5abb;stroke-width:4px;font-family:MyriadPro-Regular, Myriad Pro;}.cls-4{font-size:42.78px;}</style></defs><title>bg_poly</title><polygon class="cls-1" points="1920.5 0.5 1920.5 20.08 12.63 1080 0.5 1080 0.5 0.5 1920.5 0.5"/><path class="cls-2" d="M299,269a10,10,0,1,1-10,10,10,10,0,0,1,10-10m0-4a14,14,0,1,0,14,14,14,14,0,0,0-14-14Z" transform="translate(0.5 0.5)"/><path class="cls-2" d="M144,807a10,10,0,1,1-10,10,10,10,0,0,1,10-10m0-4a14,14,0,1,0,14,14,14,14,0,0,0-14-14Z" transform="translate(0.5 0.5)"/><path class="cls-2" d="M510,446a9,9,0,1,1-9,9,9,9,0,0,1,9-9m0-5a14,14,0,1,0,14,14,14,14,0,0,0-14-14Z" transform="translate(0.5 0.5)"/><path class="cls-2" d="M510,312a10,10,0,1,1-10,10,10,10,0,0,1,10-10m0-4a14,14,0,1,0,14,14,14,14,0,0,0-14-14Z" transform="translate(0.5 0.5)"/><path class="cls-2" d="M1025,283h0a10,10,0,0,1,4.7,18.83A9.84,9.84,0,0,1,1025,303a10,10,0,0,1-4.7-18.83A9.84,9.84,0,0,1,1025,283m0-4a14,14,0,1,0,12.37,7.43A13.87,13.87,0,0,0,1025,279Z" transform="translate(0.5 0.5)"/><path class="cls-2" d="M389,741.16h0a10,10,0,1,1-4.68,1.17,10,10,0,0,1,4.68-1.17m0-4a14,14,0,1,0,12.37,7.44A14,14,0,0,0,389,737.16Z" transform="translate(0.5 0.5)"/><path class="cls-2" d="M710.15,114.05a10,10,0,0,1,4.71,18.83,9.87,9.87,0,0,1-4.68,1.17,10,10,0,0,1-4.7-18.83,9.8,9.8,0,0,1,4.67-1.17m0-4a14,14,0,1,0,12.38,7.44,13.95,13.95,0,0,0-12.38-7.44Z" transform="translate(0.5 0.5)"/><path class="cls-2" d="M163,157v22H141V157h22m4-4H137v30h30V153Z" transform="translate(0.5 0.5)"/><path class="cls-2" d="M123,342v22H101V342h22m4-4H97v30h30V338Z" transform="translate(0.5 0.5)"/><path class="cls-2" d="M499,656v22H477V656h22m4-4H473v30h30V652Z" transform="translate(0.5 0.5)"/><path class="cls-2" d="M667,486v22H645V486h22m4-4H641v30h30V482Z" transform="translate(0.5 0.5)"/><path class="cls-2" d="M1196,217v22h-22V217h22m4-4h-30v30h30V213Z" transform="translate(0.5 0.5)"/><path class="cls-2" d="M1256,268v22h-22V268h22m4-4h-30v30h30V264Z" transform="translate(0.5 0.5)"/><text class="cls-3" transform="translate(216.63 521.09)">+</text><text class="cls-4" transform="matrix(0.84, 0, 0, -1, 285.63, 735.31)">+</text><text class="cls-3" transform="translate(1057.63 368.09)">+</text><text class="cls-3" transform="translate(803.63 512.09)">+</text><text class="cls-3" transform="translate(681.63 88.09)">+</text><text class="cls-3" transform="translate(777.63 353.09)">+</text></svg>